<svg width="76" height="15" viewBox="0 0 76 15" fill="none" xmlns="http://www.w3.org/2000/svg">
<path d="M68.5 0C64.3525 0 61 3.3525 61 7.5C61 11.6475 64.3525 15 68.5 15C72.6475 15 76 11.6475 76 7.5C76 3.3525 72.6475 0 68.5 0ZM72.25 10.1925L71.1925 11.25L68.5 8.5575L65.8075 11.25L64.75 10.1925L67.4425 7.5L64.75 4.8075L65.8075 3.75L68.5 6.4425L71.1925 3.75L72.25 4.8075L69.5575 7.5L72.25 10.1925Z" fill="#68CCF4"/>
<path d="M42.6438 4.37228L42.6438 8.10816L44.3055 8.10816L44.3114 2.70468L38.902 2.70468L38.9079 4.37228L42.6438 4.37228ZM35.3724 11.6437L35.3724 7.90781L33.7107 7.90781L33.7048 13.3113L39.1141 13.3113L39.1082 11.6437L35.3724 11.6437Z" fill="#C7C7C7"/>
<line y1="7.25" x2="13" y2="7.25" stroke="#C7C7C7" stroke-width="1.5"/>
</svg>
