<svg viewBox="0 0 127 126.61" xmlns="http://www.w3.org/2000/svg">
	<g fill="white">
		<path d="m38.72 53.2 24.59-24.58 24.6 24.6 14.3-14.31-38.9-38.91-38.9 38.9z"/>
		<path d="m3.64 53.19h20.23v20.23h-20.23z" transform="matrix(.70710678 -.70710678 .70710678 .70710678 -40.19 28.27)"/>
		<path d="m38.72 73.41 24.59 24.59 24.6-24.6 14.31 14.29-.01.01-38.9 38.91-38.9-38.89-.02-.02z"/>
		<path d="m101.64 53.19h20.23v20.23h-20.23z" transform="matrix(.70710678 -.70710678 .70710678 .70710678 -11.49 97.57)"/>
		<path d="m77.82 63.3-14.51-14.52-10.73 10.73-1.24 1.23-2.54 2.54-.02.02.02.03 14.51 14.5 14.51-14.52.01-.01z"/>
	</g>
</svg>