<svg width="135" height="170" viewBox="0 0 135 170" fill="none" xmlns="http://www.w3.org/2000/svg">
<path fill-rule="evenodd" clip-rule="evenodd" d="M111.448 66.7637C116.949 74.4731 119.935 83.8345 119.856 93.2744C119.856 102.557 116.87 111.84 111.448 119.392L122.921 128.124C130.229 118.055 134.236 105.782 134.236 93.3534C134.315 80.2157 129.993 67.3144 122.057 56.9302L115.477 62.8606L111.448 66.7637Z" fill="white"/>
<path fill-rule="evenodd" clip-rule="evenodd" d="M133.137 135.858L94.5536 106.515C97.3041 102.897 98.8757 98.4915 99.1114 93.9288C99.2685 89.3661 98.0897 84.882 95.6539 81.0271L114.12 64.35L133.451 46.2564C134.708 45.0765 134.787 43.0308 133.529 41.7723L130.858 39.0978C117.106 25.1737 98.5614 17.0708 79.0736 16.4416L79.1521 5.82137C79.2307 5.11336 79.1521 4.4054 78.995 3.69739C78.7589 2.98938 78.4447 2.36005 77.9733 1.80936C77.5019 1.2587 76.9516 0.86536 76.2446 0.550695C75.6157 0.236029 74.9086 0.0786775 74.2016 0.0786775C73.4941 0.0786775 72.7871 0.236029 72.1582 0.550695C71.5297 0.86536 70.9012 1.2587 70.4295 1.80936C69.9581 2.36005 69.5653 2.98938 69.4082 3.61871C69.1725 4.32672 69.0939 5.03473 69.2511 5.74274L69.1725 16.6776C64.5362 17.1494 59.8999 18.0147 55.4207 19.3521L55.4993 5.74274C55.5779 5.03473 55.4993 4.32672 55.3422 3.61871C55.1065 2.91071 54.7923 2.28138 54.3205 1.73068C53.8491 1.18003 53.2992 0.786686 52.5918 0.472021C51.9633 0.157356 51.2562 0 50.5488 0C49.8417 0 49.1343 0.157356 48.5058 0.472021C47.8773 0.786686 47.2484 1.18003 46.7771 1.73068C46.3057 2.28138 45.9125 2.9107 45.7554 3.54004C45.5197 4.24804 45.4411 4.95605 45.5983 5.66406L45.3626 23.0495C29.4893 30.1296 16.445 42.4801 8.50835 57.9777C0.572127 73.4753 -1.94263 91.2539 1.51485 108.325C4.97232 125.396 14.1663 140.814 27.5249 151.985C40.8834 163.156 57.6998 169.449 75.0657 169.764L131.251 170C132.979 170 134.394 168.584 134.394 166.853V138.454C134.394 137.432 133.922 136.488 133.137 135.858ZM76.166 156.076C62.3357 155.997 48.8986 151.356 37.9758 142.938C27.0535 134.442 19.1954 122.564 15.6594 109.19C12.1234 95.8165 13.1446 81.5778 18.4098 68.8337C23.7532 56.0896 33.1039 45.3911 45.1269 38.4681L45.0483 59.1577C44.9698 59.8659 45.0483 60.5737 45.2055 61.2819C45.4411 61.9897 45.7554 62.6189 46.2272 63.1696C46.6985 63.7203 47.2484 64.1139 47.9559 64.4286C48.5844 64.7432 49.2914 64.9003 49.9989 64.9003C50.7059 64.9003 51.4134 64.7432 52.0418 64.4286C52.6703 64.1139 53.2992 63.7203 53.7706 63.1696C54.2419 62.6189 54.6352 61.9897 54.7923 61.3605C55.028 60.6522 55.1065 59.9444 54.9494 59.2366L55.0279 33.8269C61.9429 31.3095 69.2511 30.1296 76.6374 30.1296C90.2316 30.1296 103.433 34.6137 114.199 42.7952C114.985 43.4244 115.063 44.5258 114.356 45.2336L84.9668 72.2164C82.2954 71.115 79.3878 70.4858 76.4802 70.4858C73.2585 70.4858 70.0367 71.115 67.0505 72.4525C64.0644 73.79 61.4715 75.7567 59.35 78.1951C57.228 80.634 55.6564 83.5445 54.7137 86.6126C53.7706 89.7593 53.5349 92.9845 54.0063 96.2101C54.478 99.4353 55.5779 102.503 57.3066 105.257C59.0353 108.01 61.393 110.291 64.0644 112.101C66.8149 113.832 69.8795 115.011 73.1013 115.484C76.3231 115.955 79.6235 115.719 82.6882 114.775L120.249 143.332C120.642 143.646 120.878 144.119 120.878 144.59L120.799 154.66C120.799 155.525 120.092 156.233 119.228 156.233L76.166 156.076ZM85.3596 93.142C85.3596 94.8727 84.8097 96.6033 83.867 98.0979C82.8453 99.5929 81.5093 100.694 79.8592 101.402C78.209 102.11 76.4017 102.267 74.7515 101.874C73.1013 101.481 71.4512 100.694 70.1938 99.4353C68.9364 98.1768 68.0722 96.6033 67.758 94.8727C67.4433 93.142 67.6009 91.3328 68.3079 89.7593C69.015 88.1072 70.1152 86.7697 71.6083 85.7473C73.1013 84.8035 74.8301 84.2528 76.5588 84.2528C78.9164 84.2528 81.1951 85.1966 82.8453 86.9273C84.4169 88.5008 85.3596 90.7032 85.3596 93.142Z" fill="white"/>
</svg>
