<svg width="170" height="170" viewBox="0 0 170 170" fill="none" xmlns="http://www.w3.org/2000/svg">
<path d="M49.9504 96.7736C55.0352 96.7736 59.7121 95.0605 63.4645 92.1783L32.4664 61.1802C29.5569 64.9054 27.8711 69.6095 27.8711 74.6943C27.8711 86.8488 37.7687 96.7736 49.9504 96.7736Z" fill="white"/>
<path d="M142.102 74.6672C142.102 69.5824 140.389 64.9055 137.506 61.1531L106.508 92.124C110.234 95.0334 114.938 96.7193 120.022 96.7193C132.204 96.7737 142.102 86.8489 142.102 74.6672Z" fill="white"/>
<path d="M157.71 40.9229L144.005 54.6273C148.546 60.0655 151.265 67.0265 151.265 74.6401C151.265 91.8794 137.234 105.91 119.995 105.91C112.409 105.91 105.421 103.164 99.9824 98.65L84.9728 113.66L69.9632 98.65C64.525 103.191 57.564 105.91 49.9504 105.91C32.7111 105.91 18.6804 91.8794 18.6804 74.6401C18.6804 67.0537 21.4267 60.0655 25.9405 54.6273L18.9251 47.6119L12.2633 40.95C4.48657 53.8115 0 68.8755 0 85C0 131.932 38.0406 170 85 170C131.959 170 170 131.959 170 85C169.973 68.8483 165.486 53.8115 157.71 40.9229Z" fill="white"/>
<path d="M146.452 26.3212C131.008 10.1152 109.146 0 84.9728 0C60.7998 0 38.9379 10.1152 23.4933 26.3212C21.3996 28.5509 19.4146 30.8621 17.5384 33.2822L84.9728 100.771L152.407 33.2822C150.585 30.8349 148.573 28.5509 146.452 26.3212ZM84.9728 11.1212C104.877 11.1212 123.34 18.7892 137.234 32.7655L84.9728 85.0272L32.7111 32.7655C46.6059 18.762 65.096 11.1212 84.9728 11.1212Z" fill="white"/>
</svg>
