<svg width="181" height="170" viewBox="0 0 181 170" fill="none" xmlns="http://www.w3.org/2000/svg">
<path fill-rule="evenodd" clip-rule="evenodd" d="M142.491 26.1284C137.189 22.6915 133.413 21.2029 133.413 21.2029C133.413 21.2029 135.892 21.302 139.442 21.5589C140.806 21.6574 142.328 21.7793 143.928 21.9277C145.203 22.046 146.528 22.1813 147.862 22.3352C145.515 20.4909 143.184 18.8315 140.876 17.3411C126.893 8.31017 113.758 5.49511 102.815 5.49511C93.1574 5.49511 85.2127 7.67669 79.8987 9.71155C75.6167 11.3514 73.0431 12.8959 72.6586 13.1266L72.6416 13.1368L78.1663 4.36301L78.5796 0.0700377C80.0704 0.213253 81.3806 1.11816 82.0412 2.46103C82.3212 3.03029 82.4674 3.64373 82.4822 4.25811C87.8501 2.59703 94.7785 1.18233 102.815 1.18233C116.5 1.18233 133.171 5.30889 150.531 18.9448C152.049 20.1378 152.59 22.1928 151.854 23.9771C151.47 24.9096 150.786 25.6495 149.947 26.1117C153.073 28.5032 156.428 31.431 159.727 34.9559C171.686 47.7314 182.751 68.2021 179.782 98.7439C179.613 100.485 178.408 101.952 176.731 102.457C175.964 102.688 175.168 102.696 174.424 102.508C173.456 115.563 167.758 137.149 143.23 155.551C141.76 156.654 139.751 156.705 138.226 155.679C137.608 155.264 137.125 154.708 136.799 154.076C136.552 154.306 136.301 154.537 136.045 154.769C129.07 161.075 118.455 167.968 104.118 169.959C103.921 169.986 103.722 170 103.523 170H103.381C101.599 170 99.9998 168.906 99.3558 167.245C99.2496 166.972 99.1731 166.692 99.125 166.41C95.5871 167.113 91.4257 167.594 86.6658 167.594C78.6556 167.594 68.9655 166.233 57.614 162.257C55.4445 161.497 54.2518 159.172 54.9012 156.969C55.5507 154.766 57.8146 153.457 60.0501 153.993C63.2642 154.764 66.4677 155.148 69.8085 155.148C91.5356 155.148 108.555 138.947 108.555 119.554C108.555 109.995 104.497 101.227 97.6622 94.7557C97.6434 94.7799 97.6245 94.8044 97.6057 94.8288C96.0454 96.8427 94.165 99.2777 92.8339 101.027C90.6794 104.047 89.924 105.717 90.0945 107.229C90.8289 112.148 89.312 116.987 86.513 120.528C86.477 120.574 86.44 120.619 86.4023 120.663C85.2946 121.954 83.1892 123.788 81.3135 125.422C81.2278 125.496 81.1426 125.57 81.0578 125.644C79.1692 127.29 77.3207 128.904 75.9777 130.245C75.9426 130.28 75.9071 130.315 75.8708 130.349C72.5255 133.468 68.1601 133.914 65.5587 133.914C64.8386 133.914 64.1901 133.86 63.7519 133.823L63.7279 133.821C63.7217 133.821 63.7158 133.82 63.7097 133.82C63.28 133.783 63.1173 133.773 63.0089 133.773H62.5839C62.5128 133.773 62.4586 133.774 62.419 133.776C62.3385 133.826 62.1944 133.925 61.962 134.107C61.6452 134.355 61.2454 134.694 60.6901 135.183C59.6276 136.179 58.3553 136.615 57.5043 136.828C56.5171 137.075 55.4798 137.169 54.5094 137.169C51.9888 137.169 49.0987 136.605 46.7236 136.016C44.2802 135.411 42.0563 134.696 40.7484 134.235C40.7028 134.218 40.6573 134.201 40.6121 134.184C39.3673 133.697 38.4358 132.876 37.8002 132.198C37.1319 131.485 36.5524 130.673 36.0571 129.878C35.0672 128.291 34.1858 126.404 33.4562 124.606C32.0483 121.135 30.8732 117.149 30.6672 115.194C30.5306 113.897 30.8471 112.666 31.0828 111.897C31.3538 111.011 31.7308 110.088 32.1236 109.214C32.8967 107.493 33.9124 105.575 34.7867 103.923L34.8239 103.853C35.4437 102.682 35.9874 101.654 36.4066 100.794C36.6145 100.367 36.7695 100.027 36.8766 99.767C36.9508 99.5863 36.9809 99.4948 36.9878 99.4746C37.2249 98.3563 37.9631 92.8756 38.7174 86.9732C39.4599 81.1627 40.1663 75.3753 40.3057 74.1908C40.4228 73.1969 40.4056 72.7142 40.305 72.2555C40.1962 71.758 39.9162 70.977 39.064 69.5785C39.056 69.5651 39.0478 69.5514 39.0398 69.538C39.0367 69.5328 39.0337 69.5279 39.0308 69.5227C37.1437 66.318 37.0488 63.1674 37.843 59.3128C28.2045 52.6246 3.71115 34.5536 2.19537 33.3146C2.18533 33.3063 2.17534 33.2981 2.16538 33.2899C1.26854 32.5432 0.356339 31.4376 0.0795734 29.9167C-0.0575776 29.1633 -0.0075684 28.4528 0.154165 27.8334C0.232907 27.5319 0.334462 27.2653 0.441989 27.036C0.495742 26.9212 0.551163 26.8153 0.606342 26.7184C0.633948 26.6699 0.661556 26.6234 0.688947 26.5791C0.702648 26.557 0.716301 26.5354 0.729886 26.5142C0.736677 26.5036 0.743452 26.4933 0.750208 26.4829L0.760329 26.4676L0.765378 26.4599C0.767898 26.4561 0.77042 26.4523 4.36255 28.8448C4.36255 28.8448 4.07924 29.2691 4.92919 29.9767C4.99807 30.033 5.12208 30.1299 5.29673 30.2635C5.32471 30.2849 5.35396 30.3073 5.3845 30.3305C5.82233 30.6646 6.52325 31.1913 7.43356 31.8702C8.66212 32.7865 10.2721 33.9805 12.1313 35.3534C21.7743 42.4749 38.1235 54.4148 42.7519 57.4301C41.3353 62.5245 41.3353 64.9303 42.7519 67.3361C44.7352 70.5909 44.8767 72.2889 44.5934 74.6947C44.3101 77.1003 41.7603 97.9027 41.1937 100.45C40.9648 101.478 39.8593 103.567 38.6404 105.869C36.8396 109.271 34.7917 113.139 34.9607 114.743C35.244 117.432 38.9272 128.894 42.1851 130.167C44.5934 131.017 50.5431 132.856 54.5094 132.856C55.9261 132.856 57.201 132.573 57.7675 132.007C60.1758 129.884 60.8842 129.46 62.5839 129.46H63.0089C63.3332 129.46 63.6871 129.49 64.071 129.522H64.0714C64.5257 129.56 65.0214 129.602 65.5587 129.602C67.8253 129.602 70.8001 129.177 72.9251 127.196C74.3941 125.728 76.3667 124.009 78.2197 122.394C80.2979 120.583 82.2258 118.903 83.1244 117.856C85.2492 115.167 86.3825 111.488 85.816 107.809C85.3909 104.412 87.2324 101.441 89.3574 98.4687C92.049 94.9309 97.0069 88.5629 97.0069 88.5629C97.3523 88.8229 97.6931 89.0877 98.0291 89.3571C98.8191 89.9906 99.583 90.6495 100.32 91.3329C108.138 98.5866 112.873 108.575 112.873 119.554C112.873 138.665 98.4341 154.595 79.1158 158.529C76.1188 159.139 73.0045 159.461 69.8085 159.461C66.1256 159.461 62.5841 159.036 59.0424 158.187C62.837 159.516 66.4256 160.537 69.8085 161.303C73.171 162.065 76.3302 162.575 79.2863 162.886C81.9055 163.162 84.3656 163.281 86.6658 163.281C92.7797 163.281 97.7981 162.435 101.666 161.389C107.926 159.696 111.173 157.48 111.173 157.48C111.173 157.48 110.333 158.558 108.824 160.226C107.587 161.594 105.899 163.36 103.854 165.253C103.745 165.354 103.635 165.456 103.523 165.558C103.518 165.563 103.513 165.568 103.507 165.573C103.465 165.611 103.424 165.649 103.381 165.687H103.523C106.213 165.314 108.763 164.753 111.173 164.048C123.474 160.448 132.142 153.071 137.275 147.472C141.041 143.365 142.904 140.215 142.904 140.215C142.904 140.215 142.576 142.557 142.054 145.463C141.824 146.748 141.555 148.143 141.26 149.495C141.063 150.399 140.855 151.283 140.637 152.102C142.551 150.666 144.344 149.211 146.023 147.742C166.773 129.585 170.127 109.379 170.276 98.7806C170.282 98.2942 170.282 97.8279 170.277 97.3831C170.277 97.381 170.277 97.3788 170.277 97.3767C170.277 97.3765 170.277 97.3762 170.277 97.3758C170.277 97.3755 170.277 97.3753 170.277 97.3748C170.277 97.3741 170.277 97.3734 170.277 97.3725C170.277 97.3704 170.277 97.368 170.277 97.3659C170.277 97.3657 170.277 97.3654 170.277 97.3652C170.277 97.3647 170.277 97.3643 170.277 97.3638C170.277 97.3565 170.277 97.349 170.277 97.3417C170.277 97.3414 170.277 97.341 170.277 97.3407C170.236 94.2031 169.929 92.1367 169.84 91.5411L169.829 91.4651C169.825 91.434 169.821 91.4101 169.819 91.3931C169.83 91.4096 169.846 91.4319 169.867 91.4597C169.882 91.4799 169.899 91.5032 169.919 91.5293C170.164 91.849 170.768 92.5888 171.516 93.5002C171.947 94.0243 172.426 94.6049 172.913 95.1951L172.913 95.1956L172.914 95.1963L172.914 95.1965L172.919 95.2029C173.486 95.8912 174.064 96.5919 174.588 97.2302C174.913 97.6258 175.217 97.9975 175.485 98.3273C175.669 96.4395 175.796 94.5933 175.871 92.7876C175.871 92.7874 175.871 92.7869 175.871 92.7867C175.871 92.7822 175.872 92.7777 175.872 92.7733C175.872 92.7707 175.872 92.7683 175.872 92.7657C175.872 92.7648 175.872 92.7636 175.872 92.7625C175.872 92.7625 175.872 92.7622 175.872 92.762C175.872 92.7613 175.872 92.7603 175.872 92.7596C175.873 92.758 175.873 92.7563 175.873 92.7547C175.873 92.753 175.873 92.7512 175.873 92.7495C175.873 92.7493 175.873 92.7488 175.873 92.7486C175.883 92.5098 175.892 92.2717 175.9 92.0344C177.17 54.2464 155.345 34.4611 142.491 26.1284ZM45.8168 18.313C45.9182 18.6543 46.024 19.0048 46.1332 19.3619C46.7603 21.4099 47.5078 23.6701 48.2766 25.59C48.9972 23.4297 49.8405 21.4878 50.7774 19.7418C56.8475 8.4292 66.848 5.35142 72.9386 4.56548C76.0688 4.16152 78.1663 4.36301 78.1663 4.36301C78.5796 0.0700374 78.5772 0.0698025 78.5749 0.0695908L78.5694 0.069073L78.5572 0.0679441L78.5268 0.0652152C78.5143 0.0641331 78.5004 0.062957 78.4851 0.0616867C78.4717 0.0605575 78.4571 0.0593812 78.4413 0.0581344C78.3735 0.052818 78.2847 0.0464426 78.1757 0.0399029C77.9579 0.0268 77.6588 0.0129446 77.2884 0.00551102C76.5483 -0.00935625 75.5159 0.00120609 74.266 0.0957026C71.7764 0.283919 68.3619 0.809754 64.6526 2.17274C59.3726 4.11304 53.608 7.72106 49.1244 14.1822C49.0561 13.9342 48.9939 13.7063 48.9386 13.5015C48.8399 13.1359 48.7631 12.8452 48.7113 12.6478C48.6854 12.5491 48.6659 12.4737 48.6531 12.4241L48.639 12.3691L48.6353 12.3545C48.2644 10.9015 47.1644 9.74484 45.7308 9.30063C44.2969 8.85635 42.735 9.18807 41.6061 10.1766L44.4517 13.4198C41.6061 10.1766 41.6044 10.1781 41.6025 10.1797L41.5988 10.183L41.5905 10.1903L41.5707 10.2078C41.5561 10.2208 41.5387 10.2364 41.5187 10.2545C41.4787 10.2907 41.428 10.3372 41.3678 10.394C41.2467 10.5074 41.0866 10.662 40.8944 10.8567C40.5106 11.2459 39.9961 11.7986 39.4104 12.509C38.2431 13.925 36.769 15.9967 35.4908 18.6743C33.6639 22.501 32.2619 27.5272 32.6801 33.5176C27.9306 31.8057 23.0105 30.0499 18.7664 28.5474C15.5391 27.4048 12.6965 26.4065 10.6127 25.6838C9.57234 25.3227 8.71214 25.0275 8.0846 24.8165C7.77263 24.7113 7.50437 24.6226 7.29448 24.5554C7.28885 24.5535 7.2817 24.5514 7.27315 24.5485C7.15986 24.5118 6.80077 24.3959 6.48414 24.3326C6.40581 24.3171 6.32709 24.3034 6.24802 24.2921C5.0783 24.1253 3.90663 24.2404 2.8417 24.7238C2.32484 24.9586 1.89357 25.2538 1.54363 25.5664C1.37061 25.7212 1.22125 25.8767 1.09316 26.0266C1.02916 26.1014 0.970517 26.175 0.916876 26.246C0.890052 26.2816 0.864472 26.3166 0.840083 26.3512C0.827889 26.3684 0.815991 26.3853 0.804384 26.4022L0.787191 26.4274L0.778756 26.4399L0.774578 26.4462C0.772501 26.4493 0.770427 26.4523 4.36255 28.8448C4.36255 28.8448 4.64586 28.4201 5.63748 28.5615C5.68356 28.5709 5.80651 28.6076 5.99968 28.6697C6.00486 28.6714 6.01006 28.673 6.01531 28.6747C6.49405 28.829 7.38698 29.132 8.59977 29.5512C10.0535 30.0537 11.9667 30.7225 14.1772 31.5011C19.5949 33.4091 26.7979 35.9756 33.3957 38.3619C35.1051 38.9801 36.774 39.5861 38.3604 40.1658C37.7976 38.4198 37.4192 36.7465 37.1924 35.1499C36.067 27.2211 38.6875 21.1813 41.088 17.5055C42.8275 14.842 44.4517 13.4198 44.4517 13.4198C44.4517 13.4198 44.9984 15.562 45.8168 18.313ZM4.51149 32.7234C4.51137 32.7234 4.51436 32.7244 4.52082 32.7262C4.51484 32.7246 4.51161 32.7234 4.51149 32.7234Z" fill="white"/>
<path d="M79.158 114.318C78.7216 114.863 77.1929 116.248 75.7364 117.566C75.3019 117.96 74.874 118.347 74.4834 118.705C73.8928 119.246 73.285 119.787 72.6838 120.322L72.6836 120.322C71.5549 121.327 70.4495 122.31 69.5253 123.234C68.9587 123.8 67.8253 124.083 66.1256 124.083H61.8758C62.7276 122.948 64.2396 121.222 65.8826 119.47C66.7887 118.632 67.7033 117.831 68.5337 117.148C69.9861 115.948 71.4386 115.136 72.7095 114.426C75.033 113.127 76.7499 112.168 76.7499 109.79C76.8392 104.967 73.6001 104.034 71.1979 104.001C71.9143 103.835 72.7215 103.705 73.4918 103.705C70.8002 102.997 67.4005 103.705 65.8421 105.262C64.7089 106.299 64.4572 109.098 64.2052 111.897C64.0792 113.296 63.9535 114.696 63.7173 115.875C63.0829 119.17 61.0855 120.989 58.0299 123.773L58.0254 123.777L58.0165 123.785C57.664 124.106 57.2978 124.44 56.9177 124.79C56.8287 124.873 56.7409 124.953 56.654 125.03L47.285 122.95C47.285 122.95 53.5178 119.695 54.5094 116.016C55.3977 112.848 53.1038 103.095 52.5137 100.585C52.4449 100.293 52.3995 100.099 52.3847 100.025C52.3934 100.034 52.4122 100.051 52.4405 100.077C52.8693 100.469 55.4379 102.817 56.6344 106.535C58.901 100.308 61.8758 94.3649 62.7257 93.7987C63.4559 93.3125 72.0294 88.7518 74.4292 87.4773C73.3801 90.3216 72.3751 93.1384 71.6503 95.2142C69.1002 95.9215 66.5504 97.3367 64.7089 100.167C65.7005 99.4596 68.8169 99.0349 71.0835 98.752C73.0667 98.6103 79.158 101.865 80.7164 107.95V108.233C80.9997 110.497 80.2913 112.62 79.158 114.318Z" fill="white" fill-opacity="0.7"/>
<path d="M74.3482 94.9263C77.255 94.6617 79.6635 95.246 80.2913 95.497C85.816 85.025 90.2073 79.3646 91.3407 79.3646C91.461 79.3496 91.7205 79.3585 92.0945 79.3712C95.2405 79.4794 106.488 79.8662 111.173 68.6096C116.196 56.343 109.124 45.8613 108.64 45.1445L108.623 45.1187C114.572 64.6472 101.398 75.5436 92.4738 75.685C87.5157 75.685 80.8579 78.9398 80.8579 78.9398L74.3482 94.9263Z" fill="white" fill-opacity="0.7"/>
<path d="M108.623 45.1187C108.628 45.121 108.635 45.1245 108.645 45.1295C109.257 45.4261 119.841 50.5551 122.892 66.4713C129.931 74.6779 134.344 84.9274 135.538 95.7798C135.538 96.4874 136.529 97.478 137.521 98.327C138.796 99.6006 140.071 100.874 140.071 102.148C140.071 105.544 139.788 108.941 139.221 112.195C138.97 113.197 137.831 113.867 136.591 114.596L136.471 114.667C136.423 114.695 136.375 114.724 136.327 114.752C136.253 114.796 136.179 114.84 136.104 114.884C135.912 115.012 135.698 115.148 135.479 115.286L135.479 115.286C134.735 115.756 133.948 116.254 133.838 116.582C130.954 126.797 124.915 135.921 116.845 142.833C130.167 135.344 140.212 122.755 144.36 107.782C145.736 101.884 145.971 95.7045 144.887 89.4118C139.788 60.5432 110.323 45.8263 108.623 45.1187Z" fill="white" fill-opacity="0.7"/>
<path d="M74.5804 46.5417C77.1961 46.6734 82.7912 46.4062 88.0825 42.5713C88.6201 43.8247 89.1533 45.0872 89.6666 46.3206C83.1588 48.0649 77.324 47.166 74.5804 46.5417Z" fill="white" fill-opacity="0.7"/>
<path d="M94.1152 44.7176C97.6401 43.0971 101.202 40.5605 104.445 36.6809C101.31 35.7841 98.067 35.1452 94.7404 34.7886C93.7487 36.3452 92.7571 37.7601 91.7655 38.8924C92.3523 40.3379 93.1979 42.4306 94.1152 44.7176Z" fill="white" fill-opacity="0.7"/>
<path d="M122.364 88.9874C123.78 81.7702 123.922 75.5438 123.497 70.4492C129.022 77.808 132.421 86.7232 133.413 95.9214C133.555 97.0536 134.688 98.1858 135.821 99.3178C136.813 100.167 137.946 101.299 137.946 102.007C137.946 105.261 137.663 108.516 137.096 111.771C136.962 112.173 135.809 112.83 134.845 113.38L134.688 113.469C133.271 114.177 131.996 114.884 131.713 116.016C128.597 126.913 121.939 136.536 113.014 143.328C126.188 129.601 132.563 106.959 122.364 88.9874Z" fill="white" fill-opacity="0.7"/>
<path fill-rule="evenodd" clip-rule="evenodd" d="M59.609 35.213C59.609 35.213 57.0592 16.9578 69.8085 9.31616C69.7635 9.33538 69.6766 9.36799 69.553 9.41445C66.9457 10.3935 47.9792 17.5157 59.609 35.213ZM87.0906 18.5146C96.8651 14.8354 110.464 12.8542 131.571 16.8165C122.222 12.1466 112.447 9.74089 102.673 9.59939C98.9901 9.59939 95.5901 9.88241 92.4738 10.4485C81.4244 12.4296 72.3583 20.3542 69.2419 30.9679C69.2419 30.9679 71.5084 27.4301 76.8913 23.7506L77.116 23.446C79.1049 20.7487 82.1009 16.6857 84.9658 13.2787C85.8157 15.1184 86.8073 17.3826 87.0906 18.5146ZM136.104 42.0054C156.078 55.166 165.144 69.7418 171.519 86.8648C171.236 68.7512 165.144 53.1848 153.387 40.7318L153.103 40.4488C142.762 29.5522 127.605 24.4578 112.589 26.5806C106.923 27.288 101.257 28.4202 96.8651 29.8354C96.1567 29.9768 95.4486 30.1184 94.7403 30.4014H95.0236C96.1567 30.2598 116.839 29.2692 136.104 42.0054ZM154.52 132.007C152.395 134.838 149.987 137.809 147.154 140.64C165.428 105.545 148.004 73.4212 147.295 72.1476C148.57 73.4212 149.845 74.8364 150.978 76.11C165.003 91.6764 166.703 115.026 154.52 132.007ZM42.7168 23.1783C42.179 25.2282 37.4034 43.4366 53.5177 43.9868C43.885 38.1848 42.7519 23.1847 42.7519 23.043L42.7439 23.0739L42.7347 23.1099L42.7168 23.1783ZM70.8001 61.1098L63.4337 73.7044C63.4337 73.7044 70.2333 70.5912 72.9249 66.6288C75.0499 63.2326 70.8001 61.1098 70.8001 61.1098ZM65.8825 119.47C66.7884 118.633 67.703 117.832 68.5336 117.149C69.986 115.948 71.4385 115.136 72.7094 114.426C75.0329 113.128 76.7496 112.168 76.7496 109.79C76.8391 104.967 73.5998 104.034 71.1976 104.001C71.2346 103.992 71.2718 103.984 71.3092 103.976C69.9957 104.269 68.9584 104.696 68.9584 104.696C68.9584 104.696 73.0666 103.988 74.6248 106.96C76.183 109.932 74.9081 111.63 72.3583 113.328C71.0853 114.176 68.3376 116.852 65.8825 119.47ZM79.2994 75.827C78.6462 76.3864 76.4555 81.9835 74.4289 87.4773C72.0291 88.7519 63.4558 93.3125 62.7256 93.799C61.8755 94.365 58.9006 100.309 56.6341 106.535C55.4379 102.817 52.8692 100.469 52.4404 100.077C52.4121 100.051 52.3933 100.034 52.3846 100.025C52.3992 100.099 52.4449 100.293 52.5136 100.586C53.1037 103.095 55.3976 112.848 54.5093 116.016C53.5177 119.696 47.2847 122.951 47.2847 122.951L56.6539 125.03C54.8077 126.68 53.4669 127.196 52.3846 127.196C49.9763 126.771 47.1432 126.064 45.1599 125.356C43.7433 123.517 41.6185 117.432 41.0519 114.884C41.3576 113.866 42.3233 112.042 43.1576 110.466L43.1579 110.466L43.1581 110.466L43.1586 110.465L43.159 110.464C43.4838 109.85 43.7885 109.275 44.0266 108.799L44.2628 108.347C45.8186 105.371 46.7316 103.625 47.0014 102.007C47.568 99.601 49.4097 84.7422 50.1181 78.5158C51.9595 80.9214 54.5093 84.8838 53.9428 87.431C58.0508 81.629 55.0759 75.9686 53.6595 73.7044C52.3846 71.4402 50.6846 66.9118 52.1011 62.1002C53.5177 57.2888 58.6174 43.9866 58.6174 43.9866C58.6174 43.9866 60.3173 46.9584 62.7256 46.3924C65.1337 45.8264 84.5408 16.6748 84.5408 16.6748C84.5408 16.6748 89.7822 28.1372 84.2575 36.4866C78.5913 44.8358 73.0666 46.3924 73.0666 46.3924C73.0666 46.3924 73.6245 46.4938 74.5803 46.5418C77.3237 47.1661 83.1587 48.065 89.6663 46.3209C91.9934 51.9112 93.9159 56.9018 94.032 57.7134C93.9601 57.8807 93.739 58.4067 93.4183 59.17L93.4166 59.174L93.4159 59.1754L93.4155 59.1768L93.415 59.178C91.8335 62.9414 87.8446 72.4329 87.3739 73.1382C87.0906 73.4212 85.1074 73.9874 83.6909 74.2704C81.2826 74.978 79.8662 75.4024 79.2994 75.827ZM83.1244 25.1654C83.1244 25.1654 84.3993 30.8258 81.1411 34.6468C77.0331 39.3166 73.4917 39.1752 73.6332 39.1752L83.1244 25.1654ZM50.4013 105.545L49.268 111.205C49.268 111.205 51.5345 110.922 51.5345 113.469C51.5345 115.451 49.268 118.139 47.4265 118.281C45.585 118.422 44.8767 116.158 45.3017 114.885C45.7265 113.752 50.4013 105.545 50.4013 105.545ZM72.075 58.2794C77.0329 59.27 78.4495 65.072 75.758 68.1852C73.0666 71.157 66.267 75.4024 62.3006 76.393C61.4507 79.6478 54.2261 78.2326 56.9176 67.9022C56.9176 67.9022 58.1925 72.8552 59.4674 72.4306C60.7424 72.0062 75.1914 49.3642 75.1914 49.3642C75.1914 49.3642 73.3499 55.3076 72.075 58.2794ZM67.0486 110.962C66.9714 112.332 66.8454 114.569 65.842 116.017C65.9407 115.918 66.2456 115.596 66.6431 115.177L66.6436 115.176C67.387 114.392 68.454 113.266 69.1001 112.62C69.5412 112.224 70.0374 111.909 70.5112 111.609C71.5595 110.945 72.4998 110.349 72.4998 109.082C72.4998 107.101 69.8085 106.677 68.6751 106.96C67.5419 107.243 67.2587 109.082 67.1169 110.073C67.0868 110.284 67.0693 110.591 67.0486 110.962ZM132.846 116.441C129.73 127.621 122.647 137.526 113.439 144.602C114.596 144.049 115.732 143.459 116.845 142.833C124.915 135.922 130.954 126.797 133.838 116.582C133.947 116.254 134.734 115.757 135.479 115.286L135.479 115.286C135.697 115.148 135.912 115.013 136.104 114.884C136.148 114.858 136.191 114.832 136.235 114.807L136.326 114.752C136.374 114.724 136.423 114.695 136.471 114.667L136.591 114.596C137.831 113.867 138.97 113.198 139.221 112.196C139.788 108.941 140.071 105.544 140.071 102.148C140.071 100.875 138.796 99.601 137.521 98.3274C136.529 97.4782 135.538 96.4876 135.538 95.7802C134.344 84.9276 129.931 74.6781 122.892 66.4717C122.955 66.8024 123.015 67.1377 123.072 67.4778C129.447 75.544 133.555 85.3084 134.688 95.6388C134.688 96.1676 135.321 96.8548 135.937 97.5226C136.145 97.7482 136.35 97.9717 136.529 98.186C137.804 99.4596 139.079 100.733 139.079 102.007C139.079 105.403 138.796 108.799 138.229 112.054C137.946 113.186 136.529 114.035 135.113 114.743C134.921 114.871 134.708 115.005 134.491 115.142L134.488 115.145L134.487 115.145C133.743 115.615 132.956 116.113 132.846 116.441ZM108.623 45.1188L108.624 45.1193C110.334 45.8323 139.789 60.5492 144.887 89.412C145.97 95.7047 145.735 101.884 144.359 107.782C145.719 102.874 146.445 97.7089 146.445 92.384C146.445 65.9454 128.676 43.6119 104.445 36.6807C101.201 40.5603 97.64 43.0969 94.1148 44.7177C96.5196 50.7152 99.4149 58.0503 99.4149 58.5624C99.4149 59.4116 96.7235 66.3456 96.44 66.6286C96.1567 66.7702 92.8986 67.0532 91.6237 67.0532C90.2072 70.4496 88.7906 73.7044 88.5073 74.1288C88.0822 74.6948 86.8073 75.1194 84.116 75.827C83.828 75.9133 83.511 76.0053 83.1861 76.0996C81.9119 76.4699 80.5168 76.875 80.291 77.1006C79.5829 77.9496 75.758 87.997 73.2081 95.0726C73.5946 95.0084 73.9754 94.9606 74.3481 94.9265L80.8578 78.9402C80.8578 78.9402 87.5157 75.6854 92.4738 75.6854C101.398 75.5438 114.572 64.6474 108.623 45.1188ZM49.5515 52.902C50.5431 51.0624 49.693 49.7888 48.8431 49.0812L48.5599 48.7982C46.8599 47.949 36.2356 43.9866 25.7528 40.3074C34.9607 46.3924 45.1599 52.336 46.8599 53.185C48.1348 53.751 48.9847 53.8926 49.5515 52.902Z" fill="white"/>
</svg>
