<svg width="43" height="43" viewBox="0 0 43 43" fill="none" xmlns="http://www.w3.org/2000/svg">
<path d="M25.4091 21.5L21.5 25.4091L17.5909 21.5L21.5 17.5909L25.4091 21.5ZM21.5 9.77273L25.6436 13.9164L30.53 9.03L21.5 0L12.47 9.03L17.3564 13.9164L21.5 9.77273ZM9.77273 21.5L13.9164 17.3564L9.03 12.47L0 21.5L9.03 30.53L13.9164 25.6436L9.77273 21.5ZM33.2273 21.5L29.0836 25.6436L33.97 30.53L43 21.5L33.97 12.47L29.0836 17.3564L33.2273 21.5ZM21.5 33.2273L17.3564 29.0836L12.47 33.97L21.5 43L30.53 33.97L25.6436 29.0836L21.5 33.2273Z" fill="#F65F75"/>
</svg>
