<svg width="42" height="34" viewBox="0 0 42 34" fill="none" xmlns="http://www.w3.org/2000/svg">
<path d="M42 22.6667H38.1818V26.4444H42V22.6667ZM42 15.1111H38.1818V18.8889H42V15.1111ZM42 30.2222H38.1818V34C40.0909 34 42 32.1111 42 30.2222ZM26.7273 0H22.9091V3.77778H26.7273V0ZM42 7.55556H38.1818V11.3333H42V7.55556ZM38.1818 0V3.77778H42C42 1.88889 40.0909 0 38.1818 0ZM3.81818 34H19.0909V22.6667H0V30.2222C0 32.3 1.71818 34 3.81818 34ZM3.81818 7.55556H0V11.3333H3.81818V7.55556ZM26.7273 30.2222H22.9091V34H26.7273V30.2222ZM34.3636 0H30.5455V3.77778H34.3636V0ZM34.3636 30.2222H30.5455V34H34.3636V30.2222ZM3.81818 0C1.90909 0 0 1.88889 0 3.77778H3.81818V0ZM3.81818 15.1111H0V18.8889H3.81818V15.1111ZM19.0909 0H15.2727V3.77778H19.0909V0ZM11.4545 0H7.63636V3.77778H11.4545V0Z" fill="#F65F75"/>
</svg>
